<svg width="832" height="832" viewBox="0 0 832 832" fill="none" xmlns="http://www.w3.org/2000/svg">
<g filter="url(#filter0_d)">
<rect x="4" width="824" height="824" rx="184" fill="#EB2619"/>
<rect x="4" width="824" height="824" rx="184" fill="#735151" fill-opacity="0.2"/>
<g filter="url(#filter1_d)">
<path fill-rule="evenodd" clip-rule="evenodd" d="M346.092 335.365V512.936H435.184V335.365C494.223 328.255 523.743 298.57 523.743 246.312V113H435.184V246.312C435.184 258.399 430.739 268.886 421.847 277.774C413.311 286.306 402.819 290.572 390.371 290.572C378.279 290.572 367.787 286.306 358.896 277.774C350.36 268.886 346.092 258.399 346.092 246.312V113H257V246.312C257 298.57 286.697 328.255 346.092 335.365ZM576 634.669V368.197H499.635V634.669C499.635 645.334 495.825 654.476 488.203 662.094C480.887 669.407 472.047 673.063 461.682 673.063C451.317 673.063 442.324 669.407 434.703 662.094C427.386 654.476 423.728 645.334 423.728 634.669V558.796H347.363V634.669C347.363 660.265 353.613 679.462 366.111 692.26C378.915 704.753 398.121 711 423.728 711H499.635C525.243 711 544.296 704.753 556.795 692.26C569.598 679.462 576 660.265 576 634.669Z" fill="white"/>
</g>
</g>
<defs>
<filter id="filter0_d" x="0" y="0" width="832" height="832" filterUnits="userSpaceOnUse" color-interpolation-filters="sRGB">
<feFlood flood-opacity="0" result="BackgroundImageFix"/>
<feColorMatrix in="SourceAlpha" type="matrix" values="0 0 0 0 0 0 0 0 0 0 0 0 0 0 0 0 0 0 127 0"/>
<feOffset dy="4"/>
<feGaussianBlur stdDeviation="2"/>
<feColorMatrix type="matrix" values="0 0 0 0 0 0 0 0 0 0 0 0 0 0 0 0 0 0 0.25 0"/>
<feBlend mode="normal" in2="BackgroundImageFix" result="effect1_dropShadow"/>
<feBlend mode="normal" in="SourceGraphic" in2="effect1_dropShadow" result="shape"/>
</filter>
<filter id="filter1_d" x="257" y="113" width="327" height="606" filterUnits="userSpaceOnUse" color-interpolation-filters="sRGB">
<feFlood flood-opacity="0" result="BackgroundImageFix"/>
<feColorMatrix in="SourceAlpha" type="matrix" values="0 0 0 0 0 0 0 0 0 0 0 0 0 0 0 0 0 0 127 0"/>
<feOffset dx="4" dy="4"/>
<feGaussianBlur stdDeviation="2"/>
<feColorMatrix type="matrix" values="0 0 0 0 0 0 0 0 0 0 0 0 0 0 0 0 0 0 0.25 0"/>
<feBlend mode="normal" in2="BackgroundImageFix" result="effect1_dropShadow"/>
<feBlend mode="normal" in="SourceGraphic" in2="effect1_dropShadow" result="shape"/>
</filter>
</defs>
</svg>
